<?xml version="1.0" encoding="UTF-8" standalone="no"?>
<!-- Created with Inkscape (http://www.inkscape.org/) -->

<svg
   xmlns:dc="http://purl.org/dc/elements/1.1/"
   xmlns:cc="http://creativecommons.org/ns#"
   xmlns:rdf="http://www.w3.org/1999/02/22-rdf-syntax-ns#"
   xmlns:svg="http://www.w3.org/2000/svg"
   xmlns="http://www.w3.org/2000/svg"
   xmlns:sodipodi="http://sodipodi.sourceforge.net/DTD/sodipodi-0.dtd"
   xmlns:inkscape="http://www.inkscape.org/namespaces/inkscape"
   id="svg2"
   version="1.1"
   inkscape:version="0.91 r13725"
   width="500"
   height="210.58957"
   viewBox="0 0 210.58957 210.58957"
   sodipodi:docname="New Premier League Logo 2016-17.svg">
  <metadata
     id="metadata8">
    <rdf:RDF>
      <cc:Work
         rdf:about="">
        <dc:format>image/svg+xml</dc:format>
        <dc:type
           rdf:resource="http://purl.org/dc/dcmitype/StillImage" />
        <dc:title></dc:title>
      </cc:Work>
    </rdf:RDF>
  </metadata>
  <defs
     id="defs6" />
  <sodipodi:namedview
     pagecolor="#ffffff"
     bordercolor="#666666"
     borderopacity="1"
     objecttolerance="10"
     gridtolerance="10"
     guidetolerance="10"
     inkscape:pageopacity="0"
     inkscape:pageshadow="2"
     inkscape:window-width="1600"
     inkscape:window-height="838"
     id="namedview4"
     showgrid="false"
     inkscape:zoom="2.26"
     inkscape:cx="250"
     inkscape:cy="105.29478"
     inkscape:window-x="-8"
     inkscape:window-y="-8"
     inkscape:window-maximized="1"
     inkscape:current-layer="svg2"
     fit-margin-top="0"
     fit-margin-left="0"
     fit-margin-right="0"
     fit-margin-bottom="0" />
  <g
     id="g4199"
     transform="matrix(0.43313146,0,0,0.43313146,-183.17823,-116.6152)">
    <path
       sodipodi:nodetypes="cccccccccccc"
       inkscape:connector-curvature="0"
       id="path4138"
       d="m 524.89961,362.01396 c 54.87864,-30.3362 111.17108,-34.25932 163.07762,-20.10611 2.22905,-17.73305 3.49328,-33.19801 13.33192,-54.52809 -13.03808,9.47792 -21.39658,20.21782 -30.98813,31.82446 l -3.23212,-49.46098 -41.63404,46.26328 -28.49885,-46.51912 -17.52829,52.02409 -50.95163,-35.96673 8.57476,50.03524 c -11.69672,-9.70921 -24.74515,-19.41915 -37.83613,-24.82262 10.05721,13.25212 19.84426,31.56115 25.68489,51.25658 z"
       style="fill:#38003d;fill-opacity:1;fill-rule:evenodd;stroke:#38003d;stroke-width:0.5;stroke-linecap:butt;stroke-linejoin:round;stroke-miterlimit:4;stroke-dasharray:none;stroke-opacity:1" />
    <path
       sodipodi:nodetypes="cccccccccccccccccccccsccccccccccccccsccccccccccccccccccccccccccccccccc"
       inkscape:connector-curvature="0"
       id="path4142"
       d="m 737.23967,382.97836 c -14.51813,-12.06187 -29.10399,-22.59086 -61.15027,-30.47554 2.89921,6.34037 5.29928,14.38245 5.26938,22.76459 -8.27172,-8.81246 -18.30558,-19.75068 -30.5673,-26.24655 -40.48923,-5.30318 -82.13128,4.85649 -114.75166,21.29054 13.83037,1.60624 24.72799,12.37057 28.40318,24.2516 -39.06223,-27.23761 -61.48949,12.03783 -38.86968,51.15428 -24.3051,-11.58949 -25.4382,-39.83198 -18.03164,-58.39815 -18.24749,13.85298 -46.13486,40.56712 -63.51355,76.75266 l 22.3056,3.14745 c -26.95715,31.71057 -40.53331,77.391 -43.16771,104.24027 l 36.29337,-11.76232 c -11.49068,41.61491 -2.29032,106.38943 12.36645,130.03756 22.65139,-17.81806 40.82009,-40.11597 59.62043,-68.414 11.91706,37.64074 9.77376,76.80153 0.50306,116.73284 52.93499,29.96028 118.81818,17.81929 161.98977,-14.72177 1.83792,7.70873 3.09014,11.32337 6.69283,28.07668 52.39314,-36.28798 70.16565,-80.68362 75.25371,-123.7274 l 17.04148,18.83087 C 815.74008,572.83451 802.15117,512.96204 761.62119,454.968 l -1.67387,13.52618 c -4.70904,-5.90401 -12.41915,-13.08992 -16.01227,-17.60296 -0.56306,-0.70721 -0.42354,-1.1082 -0.79204,-1.68293 1.91885,-1.17001 5.46683,-2.83331 6.39994,-5.35989 -0.38534,-3.51659 -4.46211,-12.5863 -7.4736,-14.2744 -7.50841,0.70324 -13.53202,7.26924 -13.58175,9.67519 -3.90208,-3.68595 -7.5877,-7.76349 -18.96357,-11.95931 5.10402,5.1652 10.00754,13.09448 13.61159,20.13534 7.48433,5.48928 20.01028,16.01342 29.3499,25.60651 l -1.80055,1.81561 c -10.24264,-8.03018 -37.67961,-7.34705 -52.77325,0.27272 -7.34798,-8.80517 -15.85819,-18.58515 -27.77902,-29.37253 -2.89952,-4.95912 -3.16803,-13.82138 6.07017,-21.48441 -10.20315,0.90873 -14.44929,5.32158 -19.25583,9.40479 -7.1413,-5.38501 -16.48219,-10.98149 -31.62737,-15.28725 -11.86738,2.40963 -26.18595,10.01418 -31.70297,16.67767 13.84707,7.40683 18.0738,9.6443 26.48012,10.23607 12.33851,0.86857 23.07304,-1.93156 30.95466,3.11163 9.78301,8.69495 28.10834,24.96843 30.70852,32.36197 -15.83794,-9.07647 -39.55848,-4.27921 -65.92734,-5.65321 -24.93379,-2.98283 -38.67425,-21.43237 -38.93445,-36.29006 l -17.72108,-2.79523 c 9.96791,-13.68643 22.58885,-19.77446 31.90607,-23.03824 l -9.7294,-8.05275 c 15.58272,-13.39958 39.8196,-24.14342 64.4871,-26.2795 17.0976,8.45594 31.74821,17.71629 41.79576,26.00095 4.54135,-7.58504 5.20372,-15.82921 5.76268,-21.22982 19.4916,8.97321 41.25858,24.35226 57.18013,40.55044 -6.38475,-11.64703 -11.22552,-25.08468 -13.3398,-41.00218 z m -76.15781,182.44027 c -7.47964,-14.3439 -14.80088,-30.58406 -23.38921,-44.23741 16.60296,-11.8951 32.3132,-24.22381 59.23102,-31.10884 5.68448,4.71902 14.05094,10.38001 25.98757,14.72118 l -0.0164,28.35374 c -16.92693,11.59655 -33.84441,30.49281 -61.81302,32.27133 z m 56.36714,-5.21303 20.49901,-0.0659 c 3.47007,3.26204 10.705,14.33158 11.22323,22.9561 -1.61155,12.23398 -11.09871,34.72798 -27.77424,43.31404 0.52722,-10.41522 -0.66853,-23.89844 -2.76258,-31.40399 -9.51566,10.71517 -25.00575,15.5384 -32.99022,17.31116 -3.31907,-8.84913 -8.76248,-18.62159 -14.07053,-26.62727 14.28001,-2.96358 32.34869,-13.44761 45.87533,-25.4841 z m 40.006,-69.00069 c 13.49689,28.60526 10.59358,56.03471 1.11935,70.09109 -4.6135,-10.55871 -13.47254,-21.12561 -20.98887,-27.77729 l 0.30709,-27.77668 c 8.54094,-4.59732 14.36411,-9.42095 19.56243,-14.53712 z"
       style="color:#000000;font-style:normal;font-variant:normal;font-weight:normal;font-stretch:normal;font-size:medium;line-height:normal;font-family:sans-serif;text-indent:0;text-align:start;text-decoration:none;text-decoration-line:none;text-decoration-style:solid;text-decoration-color:#000000;letter-spacing:normal;word-spacing:normal;text-transform:none;direction:ltr;block-progression:tb;writing-mode:lr-tb;baseline-shift:baseline;text-anchor:start;white-space:normal;clip-rule:nonzero;display:inline;overflow:visible;visibility:visible;opacity:1;isolation:auto;mix-blend-mode:normal;color-interpolation:sRGB;color-interpolation-filters:linearRGB;solid-color:#000000;solid-opacity:1;fill:#38003d;fill-opacity:1;fill-rule:evenodd;stroke:#38003d;stroke-width:0.5;stroke-linecap:butt;stroke-linejoin:round;stroke-miterlimit:4;stroke-dasharray:none;stroke-dashoffset:0;stroke-opacity:1;color-rendering:auto;image-rendering:auto;shape-rendering:auto;text-rendering:auto;enable-background:accumulate" />
  </g>
</svg>
